# xmcd
#
# Track frame offsets:
#	150
#	17358
#	26697
#	76106
#	113290
#	159061
#	201098
#	250867
#	261327
#	297446
#
# Disc length: 4285 seconds
#
# Revision: 1
# Processed by: cddbd v1.5.2PL0 Copyright (c) Steve Scherf et al.
# Submitted via: audiograbber 1.83.01
#
DISCID=7010bb0a
DTITLE=Grateful Dead - 77-10-15 Moody Coliseum, Dallas TX
DYEAR=1900
DGENRE=
TTITLE0=Sunrise
TTITLE1=Tuning
TTITLE2=Terrapin Station
TTITLE3=St Stephen
TTITLE4=Not Fade Away
TTITLE5=Stella Blue
TTITLE6=Sugar Magnolia
TTITLE7=Tuning
TTITLE8=Truckin
TTITLE9=One More Saturday Night
EXTD=
EXTT0=
EXTT1=
EXTT2=
EXTT3=
EXTT4=
EXTT5=
EXTT6=
EXTT7=
EXTT8=
EXTT9=
PLAYORDER=
